<svg width="72px" height="72px" viewBox="0 0 72 72" version="1.1" xmlns="http://www.w3.org/2000/svg" xmlns:xlink="http://www.w3.org/1999/xlink">
    <g id="页面-1" stroke="none" stroke-width="1" fill="none" fill-rule="evenodd">
        <g id="普通外销-1080-wap" transform="translate(-948.000000, -2022.000000)">
            <g id="关闭ic" transform="translate(948.000000, 2022.000000)">
                <path d="M22.701216,20 C23.226502,20 23.7307014,20.2066553 24.1048839,20.5753188 L36.4998085,32.787 L48.8951161,20.5753188 C49.2277227,20.2476179 49.6630588,20.0479235 50.124619,20.0075927 L50.298784,20 L53.5601913,20 C53.8279832,20 54.0845865,20.107407 54.2725319,20.298166 C54.6601441,20.6915809 54.6554401,21.3247284 54.2620253,21.7123406 L54.2620253,21.7123406 L39.7608085,36 L54.2620253,50.2876594 C54.6554401,50.6752716 54.6601441,51.3084191 54.2725319,51.701834 C54.0845865,51.892593 53.8279832,52 53.5601913,52 L50.298784,52 C49.773498,52 49.2692986,51.7933447 48.8951161,51.4246812 L36.4998085,39.212 L24.1048839,51.4246812 C23.7722773,51.7523821 23.3369412,51.9520765 22.875381,51.9924073 L22.701216,52 L19.4398087,52 C19.1720168,52 18.9154135,51.892593 18.7274681,51.701834 C18.3398559,51.3084191 18.3445599,50.6752716 18.7379747,50.2876594 L18.7379747,50.2876594 L33.2388085,36 L18.7379747,21.7123406 C18.3445599,21.3247284 18.3398559,20.6915809 18.7274681,20.298166 C18.9154135,20.107407 19.1720168,20 19.4398087,20 L22.701216,20 Z" id="形状结合" fill="#242933"></path>
            </g>
        </g>
    </g>
</svg>